HIERARCHY
ROOT Hips
{
    OFFSET   0.000000   0.000000   0.000000
    CHANNELS 6 Xposition Yposition Zposition Zrotation Xrotation Yrotation
    JOINT Chest
    {
        OFFSET   0.000000   8.007240   0.000000
        CHANNELS 3 Zrotation Xrotation Yrotation
        JOINT Chest2
        {
            OFFSET   0.000000  22.077100   0.000000
            CHANNELS 3 Zrotation Xrotation Yrotation
            JOINT Neck
            {
                OFFSET   0.000000  23.254800   0.000000
                CHANNELS 3 Zrotation Xrotation Yrotation
                JOINT Head
                {
                    OFFSET   0.000000  14.370000   1.956600
                    CHANNELS 3 Zrotation Xrotation Yrotation
                    End Site
                    {
                        OFFSET   0.000000  19.566000   0.000000
                    }
                }
            }
            JOINT LeftCollar
            {
                OFFSET   3.911900  19.017000  -0.467064
                CHANNELS 3 Zrotation Xrotation Yrotation
                JOINT LeftShoulder
                {
                    OFFSET  10.383700   0.000000   0.000000
                    CHANNELS 3 Zrotation Xrotation Yrotation
                    JOINT LeftElbow
                    {
                        OFFSET  26.662100   0.001476   0.000517
                        CHANNELS 3 Zrotation Xrotation Yrotation
                        JOINT LeftWrist
                        {
                            OFFSET  28.869000  -0.000025  -0.000106
                            CHANNELS 3 Zrotation Xrotation Yrotation
                            JOINT LeftFinger0
                            {
                                OFFSET   2.044660  -2.323460   3.252850
                                CHANNELS 3 Zrotation Xrotation Yrotation
                                JOINT LeftFinger01
                                {
                                    OFFSET   3.088130   0.000000   0.000000
                                    CHANNELS 3 Zrotation Xrotation Yrotation
                                    JOINT LeftFinger02
                                    {
                                        OFFSET   2.639460   0.000000   0.000000
                                        CHANNELS 3 Zrotation Xrotation Yrotation
                                        End Site
                                        {
                                            OFFSET   2.582190   0.000000   0.000000
                                        }
                                    }
                                }
                            }
                            JOINT LeftFinger1
                            {
                                OFFSET   8.364480   0.000000   3.252850
                                CHANNELS 3 Zrotation Xrotation Yrotation
                                JOINT LeftFinger11
                                {
                                    OFFSET   4.646930   0.000000   0.000000
                                    CHANNELS 3 Zrotation Xrotation Yrotation
                                    JOINT LeftFinger12
                                    {
                                        OFFSET   2.323460   0.000000   0.000000
                                        CHANNELS 3 Zrotation Xrotation Yrotation
                                        End Site
                                        {
                                            OFFSET   2.273050   0.000000   0.000000
                                        }
                                    }
                                }
                            }
                            JOINT LeftFinger2
                            {
                                OFFSET   8.364490   0.000015   1.078090
                                CHANNELS 3 Zrotation Xrotation Yrotation
                                JOINT LeftFinger21
                                {
                                    OFFSET   5.111620   0.000000   0.000000
                                    CHANNELS 3 Zrotation Xrotation Yrotation
                                    JOINT LeftFinger22
                                    {
                                        OFFSET   2.788160   0.000016   0.000000
                                        CHANNELS 3 Zrotation Xrotation Yrotation
                                        End Site
                                        {
                                            OFFSET   2.727660   0.000000   0.000000
                                        }
                                    }
                                }
                            }
                            JOINT LeftFinger3
                            {
                                OFFSET   7.899780   0.000017  -1.078090
                                CHANNELS 3 Zrotation Xrotation Yrotation
                                JOINT LeftFinger31
                                {
                                    OFFSET   4.646930   0.000000   0.000000
                                    CHANNELS 3 Zrotation Xrotation Yrotation
                                    JOINT LeftFinger32
                                    {
                                        OFFSET   2.323470   0.000000   0.000000
                                        CHANNELS 3 Zrotation Xrotation Yrotation
                                        End Site
                                        {
                                            OFFSET   2.273050   0.000000   0.000000
                                        }
                                    }
                                }
                            }
                            JOINT LeftFinger4
                            {
                                OFFSET   7.435090   0.000000  -3.252850
                                CHANNELS 3 Zrotation Xrotation Yrotation
                                JOINT LeftFinger41
                                {
                                    OFFSET   3.717550   0.000000   0.000000
                                    CHANNELS 3 Zrotation Xrotation Yrotation
                                    JOINT LeftFinger42
                                    {
                                        OFFSET   1.858770   0.000000   0.000000
                                        CHANNELS 3 Zrotation Xrotation Yrotation
                                        End Site
                                        {
                                            OFFSET   1.818440   0.000000   0.000000
                                        }
                                    }
                                }
                            }
                        }
                    }
                }
            }
            JOINT RightCollar
            {
                OFFSET  -3.911900  19.017000  -0.467063
                CHANNELS 3 Zrotation Xrotation Yrotation
                JOINT RightShoulder
                {
                    OFFSET -10.383700   0.000019   0.000000
                    CHANNELS 3 Zrotation Xrotation Yrotation
                    JOINT RightElbow
                    {
                        OFFSET -26.662100   0.001175   0.000102
                        CHANNELS 3 Zrotation Xrotation Yrotation
                        JOINT RightWrist
                        {
                            OFFSET -28.869000   0.000016  -0.000079
                            CHANNELS 3 Zrotation Xrotation Yrotation
                            JOINT RightFinger0
                            {
                                OFFSET  -2.044660  -2.323490   3.252850
                                CHANNELS 3 Zrotation Xrotation Yrotation
                                JOINT RightFinger01
                                {
                                    OFFSET  -3.088140   0.000000   0.000000
                                    CHANNELS 3 Zrotation Xrotation Yrotation
                                    JOINT RightFinger02
                                    {
                                        OFFSET  -2.639460   0.000000   0.000000
                                        CHANNELS 3 Zrotation Xrotation Yrotation
                                        End Site
                                        {
                                            OFFSET  -2.582190   0.000000   0.000000
                                        }
                                    }
                                }
                            }
                            JOINT RightFinger1
                            {
                                OFFSET  -8.364480   0.000000   3.252850
                                CHANNELS 3 Zrotation Xrotation Yrotation
                                JOINT RightFinger11
                                {
                                    OFFSET  -4.646930   0.000000   0.000000
                                    CHANNELS 3 Zrotation Xrotation Yrotation
                                    JOINT RightFinger12
                                    {
                                        OFFSET  -2.323470   0.000000   0.000000
                                        CHANNELS 3 Zrotation Xrotation Yrotation
                                        End Site
                                        {
                                            OFFSET  -2.273050   0.000000   0.000000
                                        }
                                    }
                                }
                            }
                            JOINT RightFinger2
                            {
                                OFFSET  -8.364480   0.000000   1.078090
                                CHANNELS 3 Zrotation Xrotation Yrotation
                                JOINT RightFinger21
                                {
                                    OFFSET  -5.111620   0.000000   0.000000
                                    CHANNELS 3 Zrotation Xrotation Yrotation
                                    JOINT RightFinger22
                                    {
                                        OFFSET  -2.788160   0.000000   0.000000
                                        CHANNELS 3 Zrotation Xrotation Yrotation
                                        End Site
                                        {
                                            OFFSET  -2.727660   0.000000   0.000000
                                        }
                                    }
                                }
                            }
                            JOINT RightFinger3
                            {
                                OFFSET  -7.899780   0.000000  -1.078090
                                CHANNELS 3 Zrotation Xrotation Yrotation
                                JOINT RightFinger31
                                {
                                    OFFSET  -4.646930   0.000000   0.000000
                                    CHANNELS 3 Zrotation Xrotation Yrotation
                                    JOINT RightFinger32
                                    {
                                        OFFSET  -2.323470   0.000000   0.000000
                                        CHANNELS 3 Zrotation Xrotation Yrotation
                                        End Site
                                        {
                                            OFFSET  -2.273050   0.000000   0.000000
                                        }
                                    }
                                }
                            }
                            JOINT RightFinger4
                            {
                                OFFSET  -7.435090   0.000000  -3.252850
                                CHANNELS 3 Zrotation Xrotation Yrotation
                                JOINT RightFinger41
                                {
                                    OFFSET  -3.717550   0.000000   0.000000
                                    CHANNELS 3 Zrotation Xrotation Yrotation
                                    JOINT RightFinger42
                                    {
                                        OFFSET  -1.858770   0.000000   0.000000
                                        CHANNELS 3 Zrotation Xrotation Yrotation
                                        End Site
                                        {
                                            OFFSET  -1.818440   0.000000   0.000000
                                        }
                                    }
                                }
                            }
                        }
                    }
                }
            }
        }
    }
    JOINT LeftHip
    {
        OFFSET   9.783040   0.000000   0.000000
        CHANNELS 3 Zrotation Xrotation Yrotation
        JOINT LeftKnee
        {
            OFFSET   0.000032 -41.789100  -0.002222
            CHANNELS 3 Zrotation Xrotation Yrotation
            JOINT LeftAnkle
            {
                OFFSET   0.000087 -41.133200  -0.000135
                CHANNELS 3 Zrotation Xrotation Yrotation
                JOINT LeftToe
                {
                    OFFSET   0.000000  -6.358960  14.674500
                    CHANNELS 3 Zrotation Xrotation Yrotation
                    End Site
                    {
                        OFFSET   0.000000   0.000000   3.913200
                    }
                }
            }
        }
    }
    JOINT RightHip
    {
        OFFSET  -9.783040   0.000000   0.000000
        CHANNELS 3 Zrotation Xrotation Yrotation
        JOINT RightKnee
        {
            OFFSET   0.000047 -41.789100  -0.000896
            CHANNELS 3 Zrotation Xrotation Yrotation
            JOINT RightAnkle
            {
                OFFSET  -0.000117 -41.133300  -0.000248
                CHANNELS 3 Zrotation Xrotation Yrotation
                JOINT RightToe
                {
                    OFFSET   0.000000  -6.358970  14.674500
                    CHANNELS 3 Zrotation Xrotation Yrotation
                    End Site
                    {
                        OFFSET   0.000000   0.000000   3.913200
                    }
                }
            }
        }
    }
}
MOTION
Frames: 6
Frame Time:   0.016667
 -8.380660  89.119600   0.382651  -0.393143 -13.707200   5.192530   3.221840   6.560890  -0.611440   6.579540  13.076100  -1.611840   1.702040  -1.489880   0.038450   2.801880  -3.012920  -0.277132  -7.991190   1.148430  -2.287920 -67.565700  23.473700 -11.700300  -2.613180  -8.193830  -8.003500   3.670250  -8.881200  10.380100  41.592400  31.353300 -71.304600  -3.462400  -0.002278  -0.000088   3.268810   0.004459   0.002311 -24.122200   4.769890 -10.519600 -20.096100   0.000374   0.000971 -14.068200   0.000200   0.000488 -25.583900   3.396240  -7.053200 -25.793400   0.005197   0.002421 -17.178400   0.001116   0.005362 -25.187200   1.441120  -3.060900 -25.226100   0.001217   0.001389 -16.800500   0.001969  -0.000683 -27.965700   1.583700  -2.979590 -42.010800   0.001667  -0.000413 -27.979200   0.002099   0.000257   8.093710  -1.922420  13.712600  34.061600  20.840000  54.624500 -16.694700  -7.296820  95.240200 -29.240800  32.288700  29.757700 -66.487400  41.997500  78.333100 -21.696900  -0.003369  -0.007324 -15.027600  -0.001937  -0.000735  88.996200   4.996010   0.087490  91.648900  -0.001432  -0.001611  68.736700   0.002476  -0.000726  89.000000  -0.002559   0.001896 100.413000   0.001738  -0.003097  75.310000   0.006654  -0.001104  88.995900  -4.999280  -0.090783  93.965800   0.001568   0.001073  70.474400   0.001628   0.002527  88.984600 -10.000900  -0.176257 110.000000  -0.001501   0.005986  80.000000   0.004012   0.003296   5.400150  12.564900  -0.108776   5.683570   8.009710   1.559530  -8.864140  -5.393750  -2.754960   0.000000   0.000000   0.000000   5.173920  12.228300  -3.811540   2.747720   4.660670  -4.744010  -6.023360  -3.358190   0.548467   0.000000   0.000000   0.000000
 -8.357220  89.124100   0.416517  -0.383925 -13.642300   5.278370   3.197510   6.522950  -0.655582   6.534080  12.998100  -1.696300   1.695000  -1.574890   0.037923   2.789950  -3.185200  -0.150268  -7.972840   1.219190  -2.136410 -67.555500  23.425300 -11.665400  -2.597810  -8.125690  -8.136480   3.784470  -9.050690  10.398100  41.590600  31.293100 -71.219800  -3.707840  -0.002249  -0.000082   3.146080   0.004459   0.002303 -24.127600   4.720010 -10.410500 -20.094300   0.000405   0.000973 -14.066400   0.000217   0.000479 -25.614100   3.309970  -6.867580 -25.810700   0.005130   0.002359 -17.189900   0.001112   0.005312 -25.196900   1.397790  -2.968040 -25.237400   0.001218   0.001494 -16.806500   0.001969  -0.000675 -27.961400   1.537210  -2.892000 -42.001400   0.001661  -0.000414 -27.972900   0.002098   0.000257   8.067570  -1.705600  13.838400  33.421000  20.856400  54.789400 -16.775200  -7.728240  96.842100 -29.155100  32.337700  30.077000 -66.947500  42.196700  78.935200 -21.682000  -0.003124  -0.007245 -15.145800  -0.001760  -0.000821  88.996200   4.995970   0.087490  91.002400  -0.001456  -0.001578  68.251700   0.002454  -0.000764  89.000000  -0.002680   0.001853 100.218000   0.001882  -0.003105  75.163500   0.006707  -0.001169  88.995900  -4.999310  -0.090894  93.927600   0.001563   0.001136  70.445700   0.001620   0.002603  88.984600 -10.000900  -0.176251 110.000000  -0.001464   0.006049  80.000000   0.004037   0.003215   5.368750  12.464400  -0.087543   5.721690   8.066890   1.472060  -8.849880  -5.423680  -2.767400  -0.000000   0.000000  -0.000000   5.166300  12.180700  -3.775950   2.748220   4.659880  -4.761150  -6.013340  -3.359990   0.454429   0.000000   0.000000   0.000000
 -8.326970  89.126700   0.456782  -0.372816 -13.563800   5.358450   3.174820   6.457350  -0.726271   6.494440  12.863400  -1.831500   1.674560  -1.614040   0.037410   2.757130  -3.264740   0.067434  -7.958820   1.328530  -1.991220 -67.571300  23.376800 -11.631400  -2.547120  -8.059280  -8.182660   3.871310  -9.221610  10.438300  41.576900  31.250600 -71.166900  -3.936400  -0.002223  -0.000075   3.031790   0.004459   0.002296 -24.141600   4.648470 -10.249000 -20.093500   0.000437   0.000976 -14.065400   0.000235   0.000469 -25.652300   3.228690  -6.689130 -25.841100   0.005063   0.002299 -17.210200   0.001109   0.005262 -25.204400   1.332770  -2.828910 -25.239500   0.001218   0.001600 -16.808000   0.001968  -0.000667 -27.959200   1.467240  -2.761640 -41.991900   0.001655  -0.000416 -27.966600   0.002097   0.000257   8.063720  -1.489430  13.961900  32.820100  20.952100  55.082600 -17.046800  -7.963440  98.400600 -28.971600  32.398900  30.182000 -67.273400  42.332100  79.354200 -21.577300  -0.002882  -0.007164 -15.207200  -0.001579  -0.000911  88.996200   4.995940   0.087490  90.341900  -0.001473  -0.001547  67.756300   0.002434  -0.000794  89.000000  -0.002801   0.001809  99.889000   0.002013  -0.003114  74.916700   0.006758  -0.001218  88.995900  -4.999350  -0.091004  93.804800   0.001557   0.001200  70.353600   0.001610   0.002678  88.984600 -10.000900  -0.176248 110.000000  -0.001426   0.006111  80.000000   0.004062   0.003133   5.333830  12.368200  -0.039393   5.749480   8.093320   1.378950  -8.836180  -5.434320  -2.789420   0.000000   0.000000  -0.000000   5.155880  12.122600  -3.742240   2.747550   4.658700  -4.769490  -6.005320  -3.361780   0.359245   0.000000   0.000000  -0.000000
 -8.290860  89.126100   0.498046  -0.360901 -13.485800   5.403730   3.160600   6.396970  -0.781002   6.470120  12.739900  -1.937200   1.636640  -1.594890   0.036926   2.694750  -3.226220   0.262825  -7.961520   1.402140  -1.920880 -67.625400  23.381400 -11.634300  -2.481050  -8.099570  -8.067350   3.875670  -9.296350  10.503000  41.570000  31.291800 -71.232400  -4.046350  -0.002196  -0.000088   2.976830   0.004460   0.002300 -24.187500   4.612560 -10.149200 -20.123500   0.000469   0.000980 -14.086400   0.000251   0.000458 -25.693100   3.182710  -6.582420 -25.876400   0.004998   0.002240 -17.233700   0.001106   0.005212 -25.208400   1.294530  -2.746800 -25.240500   0.001218   0.001707 -16.809800   0.001968  -0.000658 -27.972900   1.425450  -2.681500 -42.008900   0.001647  -0.000415 -27.977900   0.002097   0.000258   8.097600  -1.391600  14.031700  32.229600  21.200500  55.404000 -17.630700  -8.492730  99.689100 -28.719400  32.432800  29.959000 -67.323000  42.348500  79.393100 -20.790400  -0.002668  -0.007075 -15.124200  -0.001390  -0.001009  88.996200   4.995910   0.087488  89.928200  -0.001396  -0.001518  67.446100   0.002416  -0.000817  89.000000  -0.002922   0.001759  99.548800   0.002134  -0.003123  74.661600   0.006806  -0.001259  88.995900  -4.999380  -0.091114  93.504500   0.001547   0.001266  70.128300   0.001597   0.002750  88.984600 -10.000900  -0.176252 110.000000  -0.001388   0.006174  80.000000   0.004082   0.003042   5.301500  12.308600   0.041885   5.761240   8.074230   1.293180  -8.824660  -5.430020  -2.815790  -0.000000   0.000000   0.000000   5.141810  12.061900  -3.727890   2.740920   4.658000  -4.753870  -6.000930  -3.368710   0.286929   0.000000   0.000000   0.000000
 -8.251590  89.124000   0.540004  -0.354823 -13.419400   5.420020   3.151100   6.339550  -0.823859   6.453620  12.622900  -2.018150   1.595110  -1.539450   0.036460   2.625990  -3.114390   0.449097  -7.967690   1.457370  -1.899150 -67.714900  23.413200 -11.654400  -2.408230  -8.192730  -7.851410   3.835500  -9.316000  10.568900  41.594600  31.405600 -71.379900  -4.079210  -0.002170  -0.000101   2.960410   0.004461   0.002304 -24.225600   4.597090 -10.099700 -20.153400   0.000502   0.000983 -14.107400   0.000267   0.000446 -25.717300   3.165590  -6.539860 -25.898600   0.004934   0.002181 -17.248400   0.001103   0.005161 -25.211000   1.267730  -2.690670 -25.240700   0.001218   0.001815 -16.810300   0.001967  -0.000649 -27.985400   1.396010  -2.625040 -42.025800   0.001640  -0.000414 -27.989200   0.002098   0.000259   8.151830  -1.363550  14.062000  31.708900  21.473100  55.658000 -18.040700  -8.878030 100.322000 -28.442500  32.448700  29.566700 -67.321000  42.350900  79.398600 -19.450400  -0.002451  -0.006985 -14.792400  -0.001200  -0.001110  88.996200   4.995880   0.087487  89.751700  -0.001271  -0.001490  67.313800   0.002399  -0.000833  89.000000  -0.003043   0.001709  99.342500   0.002243  -0.003133  74.506900   0.006853  -0.001287  88.995900  -4.999410  -0.091223  93.288800   0.001536   0.001332  69.966600   0.001583   0.002820  88.984600 -10.000900  -0.176256 110.000000  -0.001350   0.006235  80.000000   0.004101   0.002949   5.281750  12.284100   0.106751   5.763600   8.024740   1.246460  -8.814450  -5.423380  -2.832490  -0.000000   0.000000  -0.000000   5.123380  12.026400  -3.721620   2.734610   4.657240  -4.725050  -5.995630  -3.379380   0.251709   0.000000   0.000000   0.000000
 -8.210720  89.118700   0.581911  -0.367371 -13.381600   5.381610   3.145610   6.294120  -0.841143   6.442080  12.531100  -2.048260   1.558440  -1.441330   0.035980   2.565160  -2.916150   0.614241  -7.978910   1.484010  -1.900930 -67.781200  23.524000 -11.714800  -2.354290  -8.363250  -7.604260   3.699520  -9.184710  10.613400  41.727600  31.639300 -71.611700  -3.903660  -0.002148  -0.000097   3.048190   0.004463   0.002303 -24.225700   4.596320 -10.097100 -20.153300   0.000535   0.000988 -14.107300   0.000284   0.000434 -25.669300   3.208340  -6.641950 -25.855900   0.004872   0.002122 -17.220000   0.001098   0.005109 -25.187300   1.254170  -2.666980 -25.216500   0.001219   0.001921 -16.794200   0.001968  -0.000639 -27.975300   1.381620  -2.600470 -42.010100   0.001633  -0.000414 -27.978800   0.002098   0.000258   8.211710  -1.396990  14.067100  31.598400  21.635000  55.744600 -18.499000  -8.982020 100.163000 -28.452200  32.343600  29.114500 -66.613100  42.155800  79.017500 -17.733800  -0.002203  -0.006898 -13.936900  -0.001018  -0.001206  88.996200   4.995850   0.087488  90.013000  -0.001181  -0.001461  67.509800   0.002377  -0.000841  89.000000  -0.003161   0.001664  99.395200   0.002336  -0.003146  74.546500   0.006897  -0.001301  88.995900  -4.999440  -0.091330  93.308700   0.001526   0.001397  69.981600   0.001572   0.002894  88.984600 -10.000800  -0.176256 110.000000  -0.001311   0.006294  80.000000   0.004119   0.002861   5.282730  12.324900   0.119060   5.739630   7.940900   1.268350  -8.805690  -5.418040  -2.818500  -0.000000   0.000000   0.000000   5.104410  12.027000  -3.719310   2.735880   4.655670  -4.693010  -5.986630  -3.394930   0.269216   0.000000   0.000000  -0.000000
